<?xml version="1.0" encoding="UTF-8"?><svg id="Layer_1" xmlns="http://www.w3.org/2000/svg" viewBox="0 0 358.2 106.07"><defs><style>.cls-1{stroke-width:2px;}.cls-1,.cls-2{stroke:#000;stroke-miterlimit:10;}.cls-2{stroke-width:2.62px;}</style></defs><path class="cls-1" d="M52.69,64.24c0,2.35-.57,4.37-1.72,6.05-1.15,1.68-2.84,2.95-5.08,3.81-2.24.86-4.96,1.3-8.17,1.3s-5.69-.47-7.88-1.41-3.8-2.11-4.84-3.52c-1.04-1.41-1.56-2.82-1.56-4.23,0-.94.33-1.74,1-2.41.67-.67,1.51-1,2.53-1,.9,0,1.58.22,2.06.66.48.44.94,1.05,1.38,1.84.88,1.52,1.92,2.66,3.14,3.41s2.88,1.12,4.98,1.12c1.71,0,3.11-.38,4.2-1.14,1.09-.76,1.64-1.63,1.64-2.61,0-1.5-.57-2.59-1.7-3.28-1.14-.69-3.01-1.34-5.61-1.97-2.94-.73-5.33-1.49-7.17-2.3-1.84-.8-3.32-1.86-4.42-3.17-1.1-1.31-1.66-2.93-1.66-4.84,0-1.71.51-3.32,1.53-4.84,1.02-1.52,2.53-2.73,4.52-3.64,1.99-.91,4.39-1.36,7.2-1.36,2.21,0,4.19.23,5.95.69,1.76.46,3.23,1.07,4.41,1.84,1.18.77,2.07,1.62,2.69,2.56.61.94.92,1.85.92,2.75,0,.98-.33,1.78-.98,2.41s-1.59.94-2.8.94c-.88,0-1.62-.25-2.23-.75-.61-.5-1.32-1.25-2.11-2.25-.65-.83-1.41-1.5-2.28-2s-2.06-.75-3.56-.75-2.82.33-3.84.98c-1.02.66-1.53,1.47-1.53,2.45,0,.9.38,1.63,1.12,2.2.75.57,1.76,1.05,3.03,1.42,1.27.38,3.02.83,5.25,1.38,2.65.65,4.81,1.42,6.48,2.31,1.68.9,2.95,1.95,3.81,3.17.86,1.22,1.3,2.61,1.3,4.17Z"/><path class="cls-1" d="M63.77,41.46h.94v-5.12c0-1.38.04-2.45.11-3.23.07-.78.28-1.45.61-2.02.33-.58.81-1.06,1.44-1.42.62-.36,1.32-.55,2.09-.55,1.08,0,2.06.41,2.94,1.22.58.54.95,1.2,1.11,1.98s.23,1.89.23,3.33v5.81h3.12c1.21,0,2.13.29,2.77.86.64.57.95,1.31.95,2.2,0,1.15-.45,1.95-1.36,2.41-.91.46-2.2.69-3.89.69h-1.59v15.69c0,1.33.05,2.36.14,3.08s.34,1.3.75,1.75c.41.45,1.07.67,1.98.67.5,0,1.18-.09,2.03-.27.85-.18,1.52-.27,2-.27.69,0,1.31.28,1.86.83.55.55.83,1.23.83,2.05,0,1.38-.75,2.43-2.25,3.16s-3.66,1.09-6.47,1.09c-2.67,0-4.69-.45-6.06-1.34s-2.28-2.13-2.7-3.72c-.43-1.58-.64-3.7-.64-6.34v-16.38h-1.12c-1.23,0-2.17-.29-2.81-.88-.65-.58-.97-1.32-.97-2.22s.34-1.63,1.02-2.2c.68-.57,1.66-.86,2.95-.86Z"/><path class="cls-1" d="M110.91,70.58c-2.06,1.6-4.06,2.81-5.98,3.61-1.93.8-4.09,1.2-6.48,1.2-2.19,0-4.11-.43-5.77-1.3s-2.93-2.04-3.83-3.52c-.9-1.48-1.34-3.08-1.34-4.81,0-2.33.74-4.32,2.22-5.97,1.48-1.65,3.51-2.75,6.09-3.31.54-.12,1.89-.41,4.03-.84,2.15-.44,3.98-.84,5.52-1.2,1.53-.36,3.19-.81,4.98-1.33-.1-2.25-.56-3.9-1.36-4.95-.8-1.05-2.46-1.58-4.98-1.58-2.17,0-3.8.3-4.89.91-1.09.6-2.03,1.51-2.81,2.72-.78,1.21-1.33,2.01-1.66,2.39-.32.39-1.02.58-2.08.58-.96,0-1.79-.31-2.48-.92-.7-.61-1.05-1.4-1.05-2.36,0-1.5.53-2.96,1.59-4.38,1.06-1.42,2.72-2.58,4.97-3.5,2.25-.92,5.05-1.38,8.41-1.38,3.75,0,6.7.44,8.84,1.33,2.15.89,3.66,2.29,4.55,4.2.89,1.92,1.33,4.46,1.33,7.62,0,2,0,3.7-.02,5.09-.01,1.4-.03,2.95-.05,4.66,0,1.6.27,3.28.8,5.02.53,1.74.8,2.86.8,3.36,0,.88-.41,1.67-1.23,2.39-.82.72-1.76,1.08-2.8,1.08-.88,0-1.74-.41-2.59-1.23-.85-.82-1.76-2.02-2.72-3.58ZM110.35,58.24c-1.25.46-3.07.94-5.45,1.45-2.39.51-4.04.89-4.95,1.12-.92.24-1.79.71-2.62,1.41-.83.7-1.25,1.67-1.25,2.92s.49,2.39,1.47,3.3c.98.91,2.26,1.36,3.84,1.36,1.69,0,3.24-.37,4.67-1.11,1.43-.74,2.47-1.69,3.14-2.86.77-1.29,1.16-3.42,1.16-6.38v-1.22Z"/><path class="cls-1" d="M161.3,46.96v24.78c0,2.83-.3,5.27-.91,7.31-.6,2.04-1.57,3.73-2.91,5.06-1.33,1.33-3.08,2.32-5.23,2.97-2.16.65-4.84.97-8.05.97-2.94,0-5.56-.41-7.88-1.23-2.31-.82-4.09-1.89-5.34-3.19-1.25-1.3-1.88-2.64-1.88-4.02,0-1.04.35-1.89,1.06-2.55.71-.66,1.56-.98,2.56-.98,1.25,0,2.34.55,3.28,1.66.46.56.93,1.13,1.42,1.7.49.57,1.03,1.06,1.62,1.47s1.31.71,2.14.91c.83.2,1.79.3,2.88.3,2.21,0,3.92-.31,5.14-.92,1.22-.62,2.07-1.47,2.56-2.58.49-1.1.78-2.29.86-3.55.08-1.26.15-3.29.19-6.08-1.31,1.83-2.83,3.23-4.55,4.19-1.72.96-3.77,1.44-6.14,1.44-2.85,0-5.35-.73-7.48-2.19-2.14-1.46-3.78-3.5-4.92-6.12-1.15-2.62-1.72-5.66-1.72-9.09,0-2.56.35-4.88,1.05-6.94.7-2.06,1.69-3.8,2.98-5.22,1.29-1.42,2.78-2.48,4.47-3.2s3.54-1.08,5.56-1.08c2.42,0,4.51.46,6.28,1.39,1.77.93,3.42,2.38,4.94,4.36v-1.16c0-1.48.36-2.62,1.09-3.44.73-.81,1.67-1.22,2.81-1.22,1.65,0,2.74.54,3.28,1.61.54,1.07.81,2.62.81,4.64ZM136.59,57.77c0,3.46.75,6.07,2.27,7.84,1.51,1.77,3.46,2.66,5.86,2.66,1.42,0,2.75-.38,4.02-1.14,1.26-.76,2.29-1.91,3.08-3.44.79-1.53,1.19-3.39,1.19-5.58,0-3.48-.77-6.19-2.3-8.12s-3.55-2.91-6.05-2.91-4.39.93-5.86,2.78c-1.47,1.85-2.2,4.49-2.2,7.91Z"/><path class="cls-1" d="M195.54,60.14h-16.69c.02,1.94.41,3.65,1.17,5.12.76,1.48,1.77,2.59,3.03,3.34,1.26.75,2.65,1.12,4.17,1.12,1.02,0,1.95-.12,2.8-.36.84-.24,1.66-.61,2.45-1.12.79-.51,1.52-1.06,2.19-1.64.67-.58,1.53-1.38,2.59-2.38.44-.38,1.06-.56,1.88-.56.88,0,1.58.24,2.12.72.54.48.81,1.16.81,2.03,0,.77-.3,1.67-.91,2.7-.6,1.03-1.52,2.02-2.73,2.97-1.22.95-2.75,1.73-4.59,2.36s-3.96.94-6.36.94c-5.48,0-9.74-1.56-12.78-4.69-3.04-3.12-4.56-7.36-4.56-12.72,0-2.52.38-4.86,1.12-7.02s1.84-4,3.28-5.55c1.44-1.54,3.21-2.72,5.31-3.55,2.1-.82,4.44-1.23,7-1.23,3.33,0,6.19.7,8.58,2.11,2.38,1.41,4.17,3.22,5.36,5.45,1.19,2.23,1.78,4.5,1.78,6.81,0,2.15-.62,3.54-1.84,4.17-1.23.64-2.96.95-5.19.95ZM178.85,55.3h15.47c-.21-2.92-1-5.1-2.36-6.55-1.37-1.45-3.16-2.17-5.39-2.17s-3.87.73-5.23,2.2c-1.37,1.47-2.19,3.64-2.48,6.52Z"/><path class="cls-1" d="M243.74,64.83c0,1.06-.32,2.2-.95,3.41-.64,1.21-1.6,2.36-2.91,3.45-1.3,1.09-2.94,1.97-4.92,2.64-1.98.67-4.21,1-6.69,1-5.27,0-9.39-1.54-12.34-4.61-2.96-3.07-4.44-7.19-4.44-12.36,0-3.5.68-6.59,2.03-9.28,1.35-2.69,3.31-4.77,5.88-6.23s5.62-2.2,9.19-2.2c2.21,0,4.23.32,6.08.97,1.84.65,3.41,1.48,4.69,2.5,1.28,1.02,2.26,2.11,2.94,3.27.68,1.16,1.02,2.23,1.02,3.23s-.38,1.89-1.14,2.59c-.76.71-1.68,1.06-2.77,1.06-.71,0-1.3-.18-1.77-.55-.47-.36-1-.95-1.58-1.77-1.04-1.58-2.13-2.77-3.27-3.56-1.14-.79-2.58-1.19-4.33-1.19-2.52,0-4.55.98-6.09,2.95-1.54,1.97-2.31,4.66-2.31,8.08,0,1.6.2,3.08.59,4.42.4,1.34.97,2.49,1.72,3.44.75.95,1.66,1.67,2.72,2.16,1.06.49,2.23.73,3.5.73,1.71,0,3.17-.4,4.39-1.19,1.22-.79,2.3-2,3.23-3.62.52-.96,1.08-1.71,1.69-2.25.6-.54,1.34-.81,2.22-.81,1.04,0,1.91.4,2.59,1.19.69.79,1.03,1.64,1.03,2.53Z"/><path class="cls-1" d="M276.14,70.58c-2.06,1.6-4.06,2.81-5.98,3.61-1.93.8-4.09,1.2-6.48,1.2-2.19,0-4.11-.43-5.77-1.3s-2.93-2.04-3.83-3.52c-.9-1.48-1.34-3.08-1.34-4.81,0-2.33.74-4.32,2.22-5.97,1.48-1.65,3.51-2.75,6.09-3.31.54-.12,1.88-.41,4.03-.84,2.15-.44,3.98-.84,5.52-1.2,1.53-.36,3.19-.81,4.98-1.33-.1-2.25-.56-3.9-1.36-4.95-.8-1.05-2.46-1.58-4.98-1.58-2.17,0-3.8.3-4.89.91-1.09.6-2.03,1.51-2.81,2.72-.78,1.21-1.33,2.01-1.66,2.39-.32.39-1.02.58-2.08.58-.96,0-1.79-.31-2.48-.92-.7-.61-1.05-1.4-1.05-2.36,0-1.5.53-2.96,1.59-4.38,1.06-1.42,2.72-2.58,4.97-3.5,2.25-.92,5.05-1.38,8.41-1.38,3.75,0,6.7.44,8.84,1.33,2.15.89,3.66,2.29,4.55,4.2.88,1.92,1.33,4.46,1.33,7.62,0,2,0,3.7-.02,5.09-.01,1.4-.03,2.95-.05,4.66,0,1.6.27,3.28.8,5.02.53,1.74.8,2.86.8,3.36,0,.88-.41,1.67-1.23,2.39-.82.72-1.76,1.08-2.8,1.08-.88,0-1.74-.41-2.59-1.23-.85-.82-1.76-2.02-2.72-3.58ZM275.57,58.24c-1.25.46-3.07.94-5.45,1.45-2.39.51-4.04.89-4.95,1.12-.92.24-1.79.71-2.62,1.41-.83.7-1.25,1.67-1.25,2.92s.49,2.39,1.47,3.3c.98.91,2.26,1.36,3.84,1.36,1.69,0,3.24-.37,4.67-1.11,1.43-.74,2.47-1.69,3.14-2.86.77-1.29,1.16-3.42,1.16-6.38v-1.22Z"/><path class="cls-1" d="M304.47,63.08v7.12c0,1.73-.41,3.03-1.22,3.89s-1.84,1.3-3.09,1.3-2.24-.44-3.03-1.31c-.79-.88-1.19-2.17-1.19-3.88v-23.75c0-3.83,1.38-5.75,4.16-5.75,1.42,0,2.44.45,3.06,1.34.62.9.97,2.22,1.03,3.97,1.02-1.75,2.07-3.07,3.14-3.97,1.07-.9,2.5-1.34,4.3-1.34s3.53.45,5.22,1.34c1.69.9,2.53,2.08,2.53,3.56,0,1.04-.36,1.9-1.08,2.58-.72.68-1.5,1.02-2.33,1.02-.31,0-1.07-.19-2.27-.58-1.2-.39-2.26-.58-3.17-.58-1.25,0-2.27.33-3.06.98-.79.66-1.41,1.63-1.84,2.92-.44,1.29-.74,2.83-.91,4.61-.17,1.78-.25,3.95-.25,6.52Z"/><path class="cls-1" d="M349.14,70.52v-.84c-1.15,1.31-2.28,2.38-3.39,3.2-1.12.82-2.32,1.45-3.62,1.88-1.3.43-2.72.64-4.27.64-2.04,0-3.93-.43-5.67-1.3-1.74-.86-3.25-2.1-4.52-3.7-1.27-1.6-2.23-3.49-2.89-5.66-.66-2.17-.98-4.51-.98-7.03,0-5.33,1.3-9.49,3.91-12.47,2.6-2.98,6.03-4.47,10.28-4.47,2.46,0,4.53.42,6.22,1.27s3.33,2.14,4.94,3.89v-12.59c0-1.75.35-3.07,1.05-3.97.7-.9,1.69-1.34,2.98-1.34s2.29,1.41,2.98,2.23c.7.82,1.05,2.04,1.05,3.64v37.62c0,1.62-.38,2.84-1.12,3.66s-1.72.22-2.91.22-2.13-.42-2.89-1.27c-.76-.84-1.14-2.05-1.14-3.61ZM332.36,57.99c0,2.31.36,4.28,1.08,5.91s1.7,2.85,2.95,3.67c1.25.82,2.61,1.23,4.09,1.23s2.87-.39,4.11-1.17c1.24-.78,2.23-1.98,2.97-3.59.74-1.61,1.11-3.63,1.11-6.05,0-2.27-.37-4.22-1.11-5.86-.74-1.64-1.74-2.89-3-3.75-1.26-.86-2.64-1.3-4.14-1.3s-2.96.44-4.19,1.33c-1.23.89-2.18,2.16-2.86,3.81-.68,1.66-1.02,3.58-1.02,5.77Z"/><path class="cls-2" d="M93.81,13.26c0,1.38-1.12,4.5-2.5,4.5L12.11,27.42c-1.6.19-2.8,1.55-2.8,3.16v60c0,1.76,1.42,3.18,3.18,3.18h75.88c1.63,0,3,1.24,3.16,2.86.1,1,.28,2,.28,2.55h0c0,3.09-2.5,5.59-5.59,5.59H4.22c-.82,0-1.55-.41-1.99-1.04,0,0,0-.02-.01-.02-.55-.45-.91-1.14-.91-1.91V11.73c0-.82.41-1.55,1.03-2.01.46-.58,1.17-.96,1.97-.96h20.63c1.76,0,3.18-1.42,3.18-3.18v-2.78c0-.83.66-1.49,1.48-1.49h4.53c.82,0,1.49.66,1.49,1.49v2.78c0,1.76,1.42,3.18,3.18,3.18h24.33c1.76,0,3.18-1.42,3.18-3.18v-2.78c0-.83.67-1.49,1.49-1.49h4.52c.82,0,1.49.66,1.49,1.49v2.78c0,1.76,1.42,3.18,3.18,3.18h14.32c.69,0,1.32,1.28,1.77,1.73.45.45.73,2.08.73,2.77Z"/></svg>
