<?xml version="1.0" encoding="UTF-8"?><svg id="Layer_1" xmlns="http://www.w3.org/2000/svg" viewBox="0 0 375.67 100.29"><defs><style>.cls-1{stroke:#000;stroke-miterlimit:10;stroke-width:3.27px;}</style></defs><path class="cls-1" d="M13.6,9.34l17.89,46.19,7.34-25.69c.79-2.69,1.37-4.52,1.74-5.5.38-.98,1.09-1.92,2.13-2.81,1.04-.89,2.47-1.34,4.28-1.34s3.28.45,4.33,1.34c1.04.89,1.77,1.86,2.2,2.9.42,1.04,1.01,2.85,1.77,5.41l7.34,25.69,8.15-27.63c.54-1.99.98-3.43,1.31-4.33.33-.89.89-1.68,1.68-2.36.79-.68,1.92-1.02,3.4-1.02s2.76.51,3.85,1.54c1.09,1.03,1.63,2.24,1.63,3.62,0,1.27-.47,3.19-1.4,5.75l-10.1,29.63c-.88,2.51-1.56,4.32-2.04,5.44-.48,1.12-1.25,2.11-2.29,2.99-1.04.88-2.47,1.31-4.28,1.31s-3.35-.47-4.42-1.4c-1.07-.94-1.86-2.08-2.38-3.44-.51-1.36-1.07-3.13-1.68-5.3l-7.07-24.1-6.84,24.1c-.91,3.35-1.89,5.88-2.94,7.59-1.06,1.71-2.91,2.56-5.57,2.56-1.36,0-2.51-.26-3.47-.79-.95-.53-1.74-1.28-2.38-2.27s-1.19-2.14-1.68-3.49c-.48-1.34-.86-2.41-1.13-3.19L3.13,12.56c-1-2.78-1.49-4.7-1.49-5.75,0-1.33.53-2.52,1.59-3.58s2.36-1.59,3.9-1.59c2.05,0,3.44.58,4.17,1.74.72,1.16,1.49,3.15,2.31,5.96Z"/><path class="cls-1" d="M100.18,9.32v18.35c1.57-1.81,3.1-3.25,4.6-4.3,1.49-1.06,3.15-1.85,4.96-2.38,1.81-.53,3.76-.79,5.84-.79,3.14,0,5.93.66,8.36,1.99,2.43,1.33,4.34,3.26,5.73,5.8.88,1.48,1.46,3.13,1.77,4.96.3,1.83.45,3.93.45,6.32v23.69c0,2.48-.57,4.35-1.7,5.62-1.13,1.27-2.63,1.9-4.51,1.9-4.08,0-6.12-2.51-6.12-7.52v-20.88c0-3.96-.59-7-1.77-9.13-1.18-2.13-3.41-3.19-6.7-3.19-2.2,0-4.19.63-5.96,1.88-1.77,1.25-3.09,2.97-3.96,5.14-.66,1.84-1,5.12-1,9.83v16.35c0,2.45-.55,4.31-1.65,5.59-1.1,1.28-2.64,1.93-4.6,1.93-4.08,0-6.12-2.51-6.12-7.52V9.32c0-2.51.54-4.39,1.61-5.64,1.07-1.25,2.57-1.88,4.51-1.88s3.5.63,4.6,1.9c1.1,1.27,1.65,3.14,1.65,5.62Z"/><path class="cls-1" d="M147.31,14.44c-1.72,0-3.19-.53-4.42-1.59-1.22-1.06-1.83-2.55-1.83-4.48,0-1.75.63-3.19,1.88-4.33,1.25-1.13,2.71-1.7,4.37-1.7s3.02.51,4.26,1.54c1.24,1.03,1.86,2.52,1.86,4.48s-.6,3.39-1.81,4.46c-1.21,1.07-2.64,1.61-4.3,1.61ZM153.43,27.21v35.74c0,2.48-.59,4.35-1.77,5.62s-2.67,1.9-4.48,1.9-3.28-.65-4.42-1.95c-1.13-1.3-1.7-3.16-1.7-5.57V27.58c0-2.45.57-4.29,1.7-5.53,1.13-1.24,2.61-1.86,4.42-1.86s3.31.62,4.48,1.86c1.18,1.24,1.77,2.96,1.77,5.16Z"/><path class="cls-1" d="M174.56,27.12v1.49c2.33-2.87,4.74-4.98,7.25-6.32,2.51-1.34,5.35-2.02,8.52-2.02,3.81,0,7.31.98,10.51,2.94,3.2,1.96,5.73,4.83,7.59,8.61,1.86,3.78,2.79,8.24,2.79,13.41,0,3.81-.54,7.3-1.61,10.49s-2.54,5.86-4.42,8.02c-1.87,2.16-4.09,3.82-6.64,4.98-2.55,1.16-5.29,1.74-8.22,1.74-3.53,0-6.5-.71-8.9-2.13-2.4-1.42-4.69-3.5-6.86-6.25v28.4c0,5.44-1.98,8.15-5.93,8.15-2.33,0-3.87-.7-4.62-2.11-.76-1.4-1.13-3.45-1.13-6.14V27.21c0-2.36.51-4.11,1.54-5.28,1.03-1.16,2.43-1.74,4.21-1.74s3.18.6,4.28,1.79c1.1,1.19,1.65,2.91,1.65,5.14ZM198.8,45.11c0-3.26-.5-6.06-1.49-8.4-1-2.34-2.38-4.14-4.14-5.39-1.77-1.25-3.72-1.88-5.87-1.88-3.41,0-6.29,1.34-8.63,4.03-2.34,2.69-3.51,6.65-3.51,11.87,0,4.92,1.16,8.75,3.49,11.48,2.33,2.73,5.21,4.1,8.65,4.1,2.05,0,3.96-.6,5.71-1.79,1.75-1.19,3.16-2.98,4.21-5.37,1.06-2.39,1.59-5.27,1.59-8.65Z"/><path class="cls-1" d="M229.48,27.12v1.49c2.33-2.87,4.74-4.98,7.25-6.32,2.51-1.34,5.35-2.02,8.52-2.02,3.81,0,7.31.98,10.51,2.94,3.2,1.96,5.73,4.83,7.59,8.61,1.86,3.78,2.79,8.24,2.79,13.41,0,3.81-.54,7.3-1.61,10.49s-2.54,5.86-4.42,8.02c-1.87,2.16-4.08,3.82-6.64,4.98-2.55,1.16-5.29,1.74-8.22,1.74-3.53,0-6.5-.71-8.9-2.13-2.4-1.42-4.69-3.5-6.86-6.25v28.4c0,5.44-1.98,8.15-5.93,8.15-2.33,0-3.87-.7-4.62-2.11-.76-1.4-1.13-3.45-1.13-6.14V27.21c0-2.36.51-4.11,1.54-5.28,1.03-1.16,2.43-1.74,4.21-1.74s3.18.6,4.28,1.79c1.1,1.19,1.65,2.91,1.65,5.14ZM253.72,45.11c0-3.26-.5-6.06-1.49-8.4-1-2.34-2.38-4.14-4.15-5.39-1.77-1.25-3.72-1.88-5.87-1.88-3.41,0-6.29,1.34-8.63,4.03-2.34,2.69-3.51,6.65-3.51,11.87,0,4.92,1.16,8.75,3.49,11.48,2.32,2.73,5.21,4.1,8.65,4.1,2.05,0,3.96-.6,5.71-1.79,1.75-1.19,3.16-2.98,4.21-5.37,1.06-2.39,1.59-5.27,1.59-8.65Z"/><path class="cls-1" d="M305.11,63.5v-1.59c-1.48,1.87-3.03,3.44-4.67,4.71s-3.41,2.21-5.35,2.83c-1.93.62-4.14.93-6.61.93-2.99,0-5.67-.62-8.04-1.86-2.37-1.24-4.21-2.95-5.5-5.12-1.54-2.63-2.31-6.4-2.31-11.32v-24.51c0-2.48.56-4.33,1.68-5.55,1.12-1.22,2.6-1.83,4.44-1.83s3.38.62,4.53,1.86c1.15,1.24,1.72,3.08,1.72,5.53v19.8c0,2.87.24,5.28.72,7.22.48,1.95,1.35,3.47,2.61,4.58,1.25,1.1,2.95,1.65,5.1,1.65s4.05-.62,5.89-1.86c1.84-1.24,3.19-2.85,4.03-4.85.69-1.75,1.04-5.59,1.04-11.51v-15.04c0-2.45.57-4.29,1.72-5.53,1.15-1.24,2.64-1.86,4.49-1.86s3.32.61,4.44,1.83c1.12,1.22,1.68,3.07,1.68,5.55v35.83c0,2.36-.54,4.12-1.61,5.3s-2.45,1.77-4.14,1.77-3.09-.61-4.19-1.83c-1.1-1.22-1.65-2.94-1.65-5.14Z"/><path class="cls-1" d="M337.39,27.12v1.49c2.33-2.87,4.74-4.98,7.25-6.32,2.51-1.34,5.35-2.02,8.52-2.02,3.81,0,7.31.98,10.51,2.94,3.2,1.96,5.73,4.83,7.59,8.61,1.86,3.78,2.79,8.24,2.79,13.41,0,3.81-.54,7.3-1.61,10.49s-2.54,5.86-4.42,8.02c-1.87,2.16-4.08,3.82-6.64,4.98-2.55,1.16-5.29,1.74-8.22,1.74-3.53,0-6.5-.71-8.9-2.13-2.4-1.42-4.69-3.5-6.86-6.25v28.4c0,5.44-1.98,8.15-5.93,8.15-2.33,0-3.87-.7-4.62-2.11-.76-1.4-1.13-3.45-1.13-6.14V27.21c0-2.36.51-4.11,1.54-5.28,1.03-1.16,2.43-1.74,4.21-1.74s3.18.6,4.28,1.79c1.1,1.19,1.65,2.91,1.65,5.14ZM361.62,45.11c0-3.26-.5-6.06-1.49-8.4-1-2.34-2.38-4.14-4.15-5.39-1.77-1.25-3.72-1.88-5.87-1.88-3.41,0-6.29,1.34-8.63,4.03-2.34,2.69-3.51,6.65-3.51,11.87,0,4.92,1.16,8.75,3.49,11.48,2.32,2.73,5.21,4.1,8.65,4.1,2.05,0,3.96-.6,5.71-1.79,1.75-1.19,3.16-2.98,4.21-5.37,1.06-2.39,1.59-5.27,1.59-8.65Z"/></svg>